# xmcd CD database file
#
# Track frame offsets:
#	150
#	17746
#	31293
#	48943
#	66683
#	84190
#	98322
#	116275
#	133532
#	153097
#	169112
#	190508
#	211459
#	238370
#
# Disc length: 3262 seconds
#
# Revision: 0
# Processed by: cddbd v1.4PL0 Copyright (c) Steve Scherf et al.
# Submitted via: CDex 1.40Beta8
#
DISCID=ab0cbc0e
DTITLE=Fathead - Where's Your Head At?
DYEAR=2000
DGENRE=Blues
TTITLE0=Somebody Else's But Mine
TTITLE1=I Keep Holdin' On
TTITLE2=Move On Up
TTITLE3=Hip Pocket
TTITLE4=Charmalene
TTITLE5=Walk Backwards
TTITLE6=Meet Me In The Middle
TTITLE7=You're The One
TTITLE8=Blue Water
TTITLE9=Mama's Boy
TTITLE10=Commit A Crime
TTITLE11=There's No Witness
TTITLE12=Give It Up
TTITLE13=Hymn For Her
EXTD=YEAR: 2000 ID3G: 0
EXTT0=
EXTT1=
EXTT2=
EXTT3=
EXTT4=
EXTT5=
EXTT6=
EXTT7=
EXTT8=
EXTT9=
EXTT10=
EXTT11=
EXTT12=
EXTT13=
PLAYORDER=
